<svg id="Layer_1" data-name="Layer 1" xmlns="http://www.w3.org/2000/svg" viewBox="0 0 89.5 89.5"><defs><style>.cls-1{fill:#d52d28;}</style></defs><path class="cls-1" d="M44.75,2.5A42.25,42.25,0,1,1,2.5,44.75,42.3,42.3,0,0,1,44.75,2.5m0-2.5h0A44.74,44.74,0,0,0,0,44.75H0A44.75,44.75,0,0,0,44.75,89.5h0A44.76,44.76,0,0,0,89.5,44.75h0A44.75,44.75,0,0,0,44.75,0Z"/><path class="cls-1" d="M11.71,54.94A12.06,12.06,0,0,0,23.77,67V49.86L11.71,29.42Z"/><path class="cls-1" d="M63,27.51l-18.27,26-18.28-26H11.71L37.37,64H52.13l13.6-19.33V65.89a12,12,0,0,0,12-12V27.51H63Z"/><circle class="cls-1" cx="44.75" cy="33.54" r="6.03"/></svg>